<?xml version="1.0" encoding="UTF-8" standalone="no"?>
<!DOCTYPE svg PUBLIC "-//W3C//DTD SVG 1.1//EN" "http://www.w3.org/Graphics/SVG/1.1/DTD/svg11.dtd">
<svg xmlns="http://www.w3.org/2000/svg" version="1.1" viewBox="0.00 0.00 1000.00 1000.00">
<g stroke-width="2.00" fill="none" stroke-linecap="butt">
<path stroke="#4cb8da" vector-effect="non-scaling-stroke" d="
  M 729.82 324.26
  L 729.85 324.70
  A 1.69 1.63 -63.1 0 0 730.09 325.49
  Q 807.59 460.23 842.93 521.81
  C 844.04 523.74 845.36 526.36 845.71 528.72
  Q 846.83 536.38 843.70 542.92
  A 2.69 2.43 80.8 0 1 843.39 543.40
  L 838.42 549.75
  A 0.80 0.60 -79.6 0 1 838.29 549.87
  L 831.93 553.54
  A 1.10 1.05 24.6 0 1 831.61 553.65
  Q 826.52 554.55 823.00 554.56
  Q 813.92 554.58 741.52 554.57
  A 1.28 1.10 -49.2 0 0 741.18 554.62
  L 740.61 554.80"
/>
<path stroke="#6cd6f6" vector-effect="non-scaling-stroke" d="
  M 740.61 554.80
  Q 739.99 554.57 739.00 554.57
  Q 607.18 554.67 455.50 554.28
  Q 454.97 554.28 451.60 553.56
  A 0.12 0.09 54.2 0 1 451.54 553.54
  L 445.11 549.88
  A 1.39 1.24 -3.2 0 1 444.81 549.64
  Q 435.26 540.10 437.92 527.63
  Q 438.60 524.48 440.48 521.54
  Q 441.60 519.79 442.78 517.78
  Q 444.76 514.43 528.10 369.13
  Q 528.25 368.88 528.32 368.47"
/>
<path stroke="#4cb8da" vector-effect="non-scaling-stroke" d="
  M 528.32 368.47
  L 580.02 279.21"
/>
<path stroke="#a6c2db" vector-effect="non-scaling-stroke" d="
  M 740.61 554.80
  C 741.35 557.69 742.50 560.76 743.12 563.37
  Q 752.26 601.91 733.67 636.85
  Q 733.51 637.14 733.46 637.48"
/>
<path stroke="#71c5e0" vector-effect="non-scaling-stroke" d="
  M 536.32 694.99
  Q 536.73 677.48 533.18 660.26
  Q 529.68 643.33 525.17 627.11
  A 0.31 0.30 60.2 0 0 524.67 626.97
  Q 512.72 638.55 499.85 653.08
  Q 483.02 672.08 474.44 694.99"
/>
<path stroke="#71c5e0" vector-effect="non-scaling-stroke" d="
  M 393.08 694.99
  Q 394.22 672.36 388.93 650.26
  Q 386.50 640.11 382.11 623.03
  A 0.20 0.20 0.0 0 0 381.77 622.94
  C 360.54 644.37 339.50 665.16 330.34 695.00"
/>
<path stroke="#71c5e0" vector-effect="non-scaling-stroke" d="
  M 250.32 694.99
  Q 251.41 674.29 246.91 654.02
  Q 243.46 638.47 239.33 623.13
  A 0.28 0.28 0.0 0 0 238.85 623.01
  Q 233.45 628.78 224.50 637.75
  C 208.40 653.91 194.19 673.04 187.51 695.07"
/>
<path stroke="#a6c2db" vector-effect="non-scaling-stroke" d="
  M 528.32 368.47
  Q 513.42 365.26 498.22 365.83
  Q 483.34 366.39 471.39 369.28
  Q 459.05 372.25 447.44 377.43
  A 0.54 0.54 0.0 0 1 446.76 377.20
  Q 415.76 321.95 355.13 303.51"
/>
<path stroke="#15a7e2" vector-effect="non-scaling-stroke" d="
  M 449.71 527.36
  L 448.30 531.37
  A 3.75 3.70 48.0 0 0 448.20 533.57
  Q 449.49 538.56 451.03 540.14
  Q 453.61 542.79 458.60 543.95
  A 1.91 1.32 -28.7 0 0 458.98 543.99
  Q 639.84 543.99 820.71 544.00
  Q 825.47 544.00 827.66 543.03
  Q 830.84 541.62 833.01 538.54
  Q 837.26 532.49 833.55 527.27
  Q 831.93 524.99 831.32 523.92
  Q 735.36 357.28 651.94 212.91
  A 7.91 7.69 -83.5 0 0 650.66 211.25
  Q 649.12 209.73 648.98 209.30
  A 1.32 1.28 -86.2 0 0 648.34 208.55
  L 643.53 206.08
  A 1.58 1.54 -34.5 0 0 642.59 205.92
  C 637.62 206.61 634.37 207.38 632.17 211.49
  Q 631.38 212.98 631.36 213.01
  Q 545.33 361.95 451.00 525.73
  Q 450.85 525.99 450.20 526.61
  A 1.93 1.83 -13.4 0 0 449.71 527.36"
/>
<path stroke="#15a7e2" vector-effect="non-scaling-stroke" d="
  M 796.62 517.01
  A 0.31 0.31 0.0 0 0 796.89 516.55
  L 641.95 248.19
  A 0.31 0.31 0.0 0 0 641.41 248.19
  L 486.47 516.55
  A 0.31 0.31 0.0 0 0 486.74 517.01
  L 796.62 517.01"
/>
<path stroke="#15a7e2" vector-effect="non-scaling-stroke" d="
  M 650.85 301.40
  C 645.42 300.22 638.93 297.88 633.92 300.22
  Q 630.54 301.80 628.11 302.75
  A 1.88 1.78 12.9 0 0 627.67 303.01
  L 622.45 307.49
  A 1.36 1.14 89.2 0 0 622.15 307.86
  L 618.44 314.58
  A 3.78 3.37 68.3 0 0 618.08 315.57
  L 616.44 323.41
  A 3.07 3.03 48.4 0 0 616.39 324.36
  Q 622.61 392.76 624.97 418.56
  Q 625.29 422.11 626.01 424.30
  Q 627.02 427.41 628.88 429.33
  Q 634.74 435.39 644.37 434.04
  Q 646.48 433.75 649.77 431.91
  A 1.48 1.33 -81.7 0 0 650.19 431.56
  L 654.37 426.57
  A 1.45 1.36 -18.8 0 0 654.64 426.06
  Q 655.82 422.10 655.87 421.54
  Q 660.20 374.20 664.51 326.85
  C 664.82 323.47 665.16 320.52 664.14 317.29
  Q 663.46 315.14 661.99 312.05
  Q 659.58 306.99 654.37 304.00
  C 653.19 303.32 651.81 301.61 650.85 301.40"
/>
<path stroke="#15a7e2" vector-effect="non-scaling-stroke" d="
  M 665.21 473.78
  A 24.22 24.22 0.0 0 0 640.99 449.56
  A 24.22 24.22 0.0 0 0 616.77 473.78
  A 24.22 24.22 0.0 0 0 640.99 498.00
  A 24.22 24.22 0.0 0 0 665.21 473.78"
/>
</g>
<path fill="#11ccf5" d="
  M 729.82 324.26
  L 729.85 324.70
  A 1.69 1.63 -63.1 0 0 730.09 325.49
  Q 807.59 460.23 842.93 521.81
  C 844.04 523.74 845.36 526.36 845.71 528.72
  Q 846.83 536.38 843.70 542.92
  A 2.69 2.43 80.8 0 1 843.39 543.40
  L 838.42 549.75
  A 0.80 0.60 -79.6 0 1 838.29 549.87
  L 831.93 553.54
  A 1.10 1.05 24.6 0 1 831.61 553.65
  Q 826.52 554.55 823.00 554.56
  Q 813.92 554.58 741.52 554.57
  A 1.28 1.10 -49.2 0 0 741.18 554.62
  L 740.61 554.80
  Q 739.99 554.57 739.00 554.57
  Q 607.18 554.67 455.50 554.28
  Q 454.97 554.28 451.60 553.56
  A 0.12 0.09 54.2 0 1 451.54 553.54
  L 445.11 549.88
  A 1.39 1.24 -3.2 0 1 444.81 549.64
  Q 435.26 540.10 437.92 527.63
  Q 438.60 524.48 440.48 521.54
  Q 441.60 519.79 442.78 517.78
  Q 444.76 514.43 528.10 369.13
  Q 528.25 368.88 528.32 368.47
  L 580.02 279.21
  Q 580.38 279.03 580.53 278.76
  Q 607.66 231.89 622.13 206.98
  C 623.32 204.93 624.80 203.24 625.72 201.96
  Q 628.44 198.17 633.62 196.70
  Q 634.07 196.57 637.09 195.66
  A 3.95 3.81 36.9 0 1 638.47 195.49
  Q 640.70 195.62 641.72 195.16
  A 1.28 1.26 -41.7 0 1 642.90 195.22
  C 643.99 195.88 645.88 195.29 647.39 195.76
  Q 650.63 196.77 654.60 199.02
  A 2.23 2.18 3.7 0 1 655.54 200.07
  Q 656.11 201.41 657.51 201.95
  A 1.42 1.39 86.4 0 1 658.27 202.63
  Q 659.04 204.15 660.89 205.83
  A 1.82 1.65 -87.2 0 1 661.26 206.28
  L 729.82 324.26
  Z
  M 449.71 527.36
  L 448.30 531.37
  A 3.75 3.70 48.0 0 0 448.20 533.57
  Q 449.49 538.56 451.03 540.14
  Q 453.61 542.79 458.60 543.95
  A 1.91 1.32 -28.7 0 0 458.98 543.99
  Q 639.84 543.99 820.71 544.00
  Q 825.47 544.00 827.66 543.03
  Q 830.84 541.62 833.01 538.54
  Q 837.26 532.49 833.55 527.27
  Q 831.93 524.99 831.32 523.92
  Q 735.36 357.28 651.94 212.91
  A 7.91 7.69 -83.5 0 0 650.66 211.25
  Q 649.12 209.73 648.98 209.30
  A 1.32 1.28 -86.2 0 0 648.34 208.55
  L 643.53 206.08
  A 1.58 1.54 -34.5 0 0 642.59 205.92
  C 637.62 206.61 634.37 207.38 632.17 211.49
  Q 631.38 212.98 631.36 213.01
  Q 545.33 361.95 451.00 525.73
  Q 450.85 525.99 450.20 526.61
  A 1.93 1.83 -13.4 0 0 449.71 527.36
  Z"
/>
<path fill="#1982cf" d="
  M 450.20 526.61
  Q 450.85 525.99 451.00 525.73
  Q 545.33 361.95 631.36 213.01
  Q 631.38 212.98 632.17 211.49
  C 634.37 207.38 637.62 206.61 642.59 205.92
  A 1.58 1.54 -34.5 0 1 643.53 206.08
  L 648.34 208.55
  A 1.32 1.28 -86.2 0 1 648.98 209.30
  Q 649.12 209.73 650.66 211.25
  A 7.91 7.69 -83.5 0 1 651.94 212.91
  Q 735.36 357.28 831.32 523.92
  Q 831.93 524.99 833.55 527.27
  Q 837.26 532.49 833.01 538.54
  Q 830.84 541.62 827.66 543.03
  Q 825.47 544.00 820.71 544.00
  Q 639.84 543.99 458.98 543.99
  A 1.91 1.32 -28.7 0 1 458.60 543.95
  Q 453.61 542.79 451.03 540.14
  Q 449.49 538.56 448.20 533.57
  A 3.75 3.70 48.0 0 1 448.30 531.37
  L 449.71 527.36
  A 1.93 1.83 -13.4 0 1 450.20 526.61
  Z
  M 796.62 517.01
  A 0.31 0.31 0.0 0 0 796.89 516.55
  L 641.95 248.19
  A 0.31 0.31 0.0 0 0 641.41 248.19
  L 486.47 516.55
  A 0.31 0.31 0.0 0 0 486.74 517.01
  L 796.62 517.01
  Z"
/>
<path fill="#86a3bf" d="
  M 580.02 279.21
  L 528.32 368.47
  Q 513.42 365.26 498.22 365.83
  Q 483.34 366.39 471.39 369.28
  Q 459.05 372.25 447.44 377.43
  A 0.54 0.54 0.0 0 1 446.76 377.20
  Q 415.76 321.95 355.13 303.51
  Q 369.71 283.55 387.89 270.14
  C 395.52 264.51 406.34 258.01 415.64 253.88
  Q 434.33 245.57 455.08 242.26
  C 468.32 240.15 481.80 240.04 494.01 241.06
  Q 496.42 241.26 505.12 242.70
  C 532.77 247.27 558.56 260.18 579.64 278.60
  Q 579.93 278.85 580.02 279.21
  Z"
/>
<path fill="#11ccf5" d="
  M 796.62 517.01
  L 486.74 517.01
  A 0.31 0.31 0.0 0 1 486.47 516.55
  L 641.41 248.19
  A 0.31 0.31 0.0 0 1 641.95 248.19
  L 796.89 516.55
  A 0.31 0.31 0.0 0 1 796.62 517.01
  Z
  M 650.85 301.40
  C 645.42 300.22 638.93 297.88 633.92 300.22
  Q 630.54 301.80 628.11 302.75
  A 1.88 1.78 12.9 0 0 627.67 303.01
  L 622.45 307.49
  A 1.36 1.14 89.2 0 0 622.15 307.86
  L 618.44 314.58
  A 3.78 3.37 68.3 0 0 618.08 315.57
  L 616.44 323.41
  A 3.07 3.03 48.4 0 0 616.39 324.36
  Q 622.61 392.76 624.97 418.56
  Q 625.29 422.11 626.01 424.30
  Q 627.02 427.41 628.88 429.33
  Q 634.74 435.39 644.37 434.04
  Q 646.48 433.75 649.77 431.91
  A 1.48 1.33 -81.7 0 0 650.19 431.56
  L 654.37 426.57
  A 1.45 1.36 -18.8 0 0 654.64 426.06
  Q 655.82 422.10 655.87 421.54
  Q 660.20 374.20 664.51 326.85
  C 664.82 323.47 665.16 320.52 664.14 317.29
  Q 663.46 315.14 661.99 312.05
  Q 659.58 306.99 654.37 304.00
  C 653.19 303.32 651.81 301.61 650.85 301.40
  Z
  M 665.21 473.78
  A 24.22 24.22 0.0 0 0 640.99 449.56
  A 24.22 24.22 0.0 0 0 616.77 473.78
  A 24.22 24.22 0.0 0 0 640.99 498.00
  A 24.22 24.22 0.0 0 0 665.21 473.78
  Z"
/>
<path fill="#c6e0f7" d="
  M 355.13 303.51
  Q 415.76 321.95 446.76 377.20
  A 0.54 0.54 0.0 0 0 447.44 377.43
  Q 459.05 372.25 471.39 369.28
  Q 483.34 366.39 498.22 365.83
  Q 513.42 365.26 528.32 368.47
  Q 528.25 368.88 528.10 369.13
  Q 444.76 514.43 442.78 517.78
  Q 441.60 519.79 440.48 521.54
  Q 438.60 524.48 437.92 527.63
  Q 435.26 540.10 444.81 549.64
  A 1.39 1.24 -3.2 0 0 445.11 549.88
  L 451.54 553.54
  A 0.12 0.09 54.2 0 0 451.60 553.56
  Q 454.97 554.28 455.50 554.28
  Q 607.18 554.67 739.00 554.57
  Q 739.99 554.57 740.61 554.80
  C 741.35 557.69 742.50 560.76 743.12 563.37
  Q 752.26 601.91 733.67 636.85
  Q 733.51 637.14 733.46 637.48
  Q 733.22 637.45 733.02 637.78
  Q 711.30 674.35 671.41 688.14
  Q 652.76 694.59 632.00 694.72
  Q 584.20 695.03 536.32 694.99
  Q 536.73 677.48 533.18 660.26
  Q 529.68 643.33 525.17 627.11
  A 0.31 0.30 60.2 0 0 524.67 626.97
  Q 512.72 638.55 499.85 653.08
  Q 483.02 672.08 474.44 694.99
  L 393.08 694.99
  Q 394.22 672.36 388.93 650.26
  Q 386.50 640.11 382.11 623.03
  A 0.20 0.20 0.0 0 0 381.77 622.94
  C 360.54 644.37 339.50 665.16 330.34 695.00
  L 250.32 694.99
  Q 251.41 674.29 246.91 654.02
  Q 243.46 638.47 239.33 623.13
  A 0.28 0.28 0.0 0 0 238.85 623.01
  Q 233.45 628.78 224.50 637.75
  C 208.40 653.91 194.19 673.04 187.51 695.07
  Q 180.14 694.58 172.77 694.03
  Q 158.61 692.97 143.99 688.31
  C 113.99 678.75 88.13 658.28 73.34 630.49
  Q 59.32 604.12 61.01 573.02
  C 62.82 539.60 80.99 509.07 108.23 489.47
  Q 126.69 476.19 147.12 470.38
  Q 150.38 469.45 160.81 467.10
  A 0.60 0.60 0.0 0 0 161.27 466.47
  Q 160.44 456.08 160.42 452.51
  Q 160.28 427.56 167.16 405.35
  Q 175.95 376.97 195.02 353.54
  Q 219.22 323.80 255.28 309.05
  C 286.79 296.15 322.27 293.83 355.13 303.51
  Z"
/>
<path fill="#1982cf" d="
  M 650.85 301.40
  C 651.81 301.61 653.19 303.32 654.37 304.00
  Q 659.58 306.99 661.99 312.05
  Q 663.46 315.14 664.14 317.29
  C 665.16 320.52 664.82 323.47 664.51 326.85
  Q 660.20 374.20 655.87 421.54
  Q 655.82 422.10 654.64 426.06
  A 1.45 1.36 -18.8 0 1 654.37 426.57
  L 650.19 431.56
  A 1.48 1.33 -81.7 0 1 649.77 431.91
  Q 646.48 433.75 644.37 434.04
  Q 634.74 435.39 628.88 429.33
  Q 627.02 427.41 626.01 424.30
  Q 625.29 422.11 624.97 418.56
  Q 622.61 392.76 616.39 324.36
  A 3.07 3.03 48.4 0 1 616.44 323.41
  L 618.08 315.57
  A 3.78 3.37 68.3 0 1 618.44 314.58
  L 622.15 307.86
  A 1.36 1.14 89.2 0 1 622.45 307.49
  L 627.67 303.01
  A 1.88 1.78 12.9 0 1 628.11 302.75
  Q 630.54 301.80 633.92 300.22
  C 638.93 297.88 645.42 300.22 650.85 301.40
  Z"
/>
<path fill="#86a3bf" d="
  M 733.46 637.48
  Q 733.51 637.14 733.67 636.85
  Q 752.26 601.91 743.12 563.37
  C 742.50 560.76 741.35 557.69 740.61 554.80
  L 741.18 554.62
  A 1.28 1.10 -49.2 0 1 741.52 554.57
  Q 813.92 554.58 823.00 554.56
  Q 826.52 554.55 831.61 553.65
  A 1.10 1.05 24.6 0 0 831.93 553.54
  L 838.29 549.87
  A 0.80 0.60 -79.6 0 0 838.42 549.75
  L 843.39 543.40
  A 2.69 2.43 80.8 0 0 843.70 542.92
  Q 846.83 536.38 845.71 528.72
  C 845.36 526.36 844.04 523.74 842.93 521.81
  Q 807.59 460.23 730.09 325.49
  A 1.69 1.63 -63.1 0 1 729.85 324.70
  L 729.82 324.26
  C 763.24 342.50 786.02 372.21 795.47 409.46
  C 796.63 414.05 797.13 418.28 798.05 423.19
  A 0.66 0.66 0.0 0 0 798.69 423.73
  Q 838.15 424.63 868.67 447.07
  C 893.75 465.52 910.28 494.26 911.42 525.74
  C 911.63 531.55 911.65 542.69 910.03 550.01
  Q 906.43 566.32 900.64 576.92
  Q 881.98 611.06 847.17 626.67
  Q 823.93 637.10 797.49 637.31
  Q 765.48 637.56 733.46 637.48
  Z"
/>
<circle fill="#1982cf" cx="640.99" cy="473.78" r="24.22"/>
<path fill="#1ba9c9" d="
  M 250.32 694.99
  Q 249.42 708.31 245.69 717.81
  Q 242.48 725.98 233.80 731.57
  Q 222.73 738.70 209.97 735.87
  Q 200.51 733.77 193.85 725.95
  Q 182.28 712.37 187.51 695.07
  C 194.19 673.04 208.40 653.91 224.50 637.75
  Q 233.45 628.78 238.85 623.01
  A 0.28 0.28 0.0 0 1 239.33 623.13
  Q 243.46 638.47 246.91 654.02
  Q 251.41 674.29 250.32 694.99
  Z"
/>
<path fill="#1ba9c9" d="
  M 393.08 694.99
  C 392.37 701.72 391.52 708.52 389.36 715.08
  C 384.82 728.84 371.70 737.58 357.25 736.55
  C 344.59 735.65 334.02 726.78 330.08 714.90
  Q 326.97 705.54 330.34 695.00
  C 339.50 665.16 360.54 644.37 381.77 622.94
  A 0.20 0.20 0.0 0 1 382.11 623.03
  Q 386.50 640.11 388.93 650.26
  Q 394.22 672.36 393.08 694.99
  Z"
/>
<path fill="#1ba9c9" d="
  M 536.32 694.99
  Q 535.76 707.80 532.96 717.48
  C 526.05 741.32 496.09 748.44 479.56 729.95
  Q 471.09 720.47 471.65 707.00
  Q 471.82 702.90 474.44 694.99
  Q 483.02 672.08 499.85 653.08
  Q 512.72 638.55 524.67 626.97
  A 0.31 0.30 60.2 0 1 525.17 627.11
  Q 529.68 643.33 533.18 660.26
  Q 536.73 677.48 536.32 694.99
  Z"
/>
<path fill="#1ba9c9" d="
  M 310.75 752.82
  Q 310.85 752.85 310.88 752.97
  Q 315.66 771.84 317.46 779.26
  C 322.36 799.51 324.25 822.65 318.76 843.02
  C 314.60 858.44 300.51 868.29 284.53 866.38
  Q 281.69 866.04 280.39 865.69
  Q 279.10 865.34 276.46 864.21
  C 261.68 857.85 254.43 842.26 258.57 826.84
  C 264.03 806.46 277.27 787.39 291.66 772.32
  Q 296.94 766.81 310.54 752.88
  Q 310.63 752.79 310.75 752.82
  Z"
/>
<path fill="#1ba9c9" d="
  M 423.17 865.69
  Q 421.88 865.34 419.25 864.21
  C 404.46 857.85 397.21 842.26 401.35 826.83
  C 406.81 806.46 420.05 787.38 434.45 772.32
  Q 439.73 766.80 453.32 752.87
  Q 453.41 752.78 453.54 752.81
  Q 453.64 752.84 453.67 752.96
  Q 458.45 771.84 460.25 779.26
  C 465.15 799.51 467.04 822.65 461.54 843.02
  C 457.38 858.44 443.29 868.29 427.31 866.38
  Q 424.47 866.04 423.17 865.69
  Z"
/>
</svg>
