<?xml version="1.0" encoding="UTF-8" standalone="no"?>
<!DOCTYPE svg PUBLIC "-//W3C//DTD SVG 1.1//EN" "http://www.w3.org/Graphics/SVG/1.1/DTD/svg11.dtd">
<svg xmlns="http://www.w3.org/2000/svg" version="1.1" viewBox="0.00 0.00 356.00 255.00">
<g stroke-width="2.00" fill="none" stroke-linecap="butt">
<path stroke="#e3df70" vector-effect="non-scaling-stroke" d="
  M 275.17 68.20
  Q 271.27 66.10 267.33 65.43"
/>
<path stroke="#f5cd08" vector-effect="non-scaling-stroke" d="
  M 267.33 65.43
  L 266.94 60.32
  A 1.72 1.71 80.2 0 1 268.20 58.53
  L 276.52 56.29
  A 0.45 0.44 -27.1 0 0 276.75 55.58
  L 271.00 48.56
  A 1.08 1.08 0.0 0 1 271.00 47.18
  L 276.59 40.34
  A 0.61 0.60 26.9 0 0 276.27 39.37
  L 267.41 37.01
  A 0.68 0.68 0.0 0 1 266.91 36.33
  L 267.40 27.13
  A 0.57 0.57 0.0 0 0 266.63 26.57
  L 258.12 29.87
  A 0.76 0.76 0.0 0 1 257.20 29.57
  L 252.28 21.90
  A 0.53 0.53 0.0 0 0 251.38 21.90
  L 246.41 29.60
  A 0.75 0.75 0.0 0 1 245.51 29.89
  L 236.82 26.52
  A 0.47 0.47 0.0 0 0 236.18 26.99
  L 236.71 36.31
  A 0.67 0.66 83.7 0 1 236.16 37.00
  Q 230.70 37.88 225.91 40.67"
/>
<path stroke="#e3df70" vector-effect="non-scaling-stroke" d="
  M 225.91 40.67
  Q 221.41 38.83 215.22 38.11"
/>
<path stroke="#e5c973" vector-effect="non-scaling-stroke" d="
  M 267.33 65.43
  Q 265.93 65.61 264.76 65.37
  A 1.28 1.24 77.5 0 1 263.99 64.86
  L 261.89 61.90"
/>
<path stroke="#f48129" vector-effect="non-scaling-stroke" d="
  M 261.89 61.90
  Q 269.17 54.41 266.90 45.95
  Q 265.12 39.28 259.50 36.15
  C 253.05 32.55 244.42 33.94 239.70 39.92
  Q 236.97 43.37 236.00 48.29"
/>
<path stroke="#e5c973" vector-effect="non-scaling-stroke" d="
  M 236.00 48.29
  Q 231.81 44.01 225.91 40.67"
/>
<path stroke="#b1b9b9" vector-effect="non-scaling-stroke" d="
  M 282.95 84.12
  Q 274.50 86.03 267.73 82.06
  A 0.99 0.97 46.9 0 0 266.82 82.02
  Q 253.62 88.25 242.05 80.39
  A 1.31 1.28 -41.4 0 0 240.71 80.32
  Q 231.80 85.05 223.57 84.74"
/>
<path stroke="#e3df70" vector-effect="non-scaling-stroke" d="
  M 223.57 84.74
  Q 223.61 84.39 223.50 83.98"
/>
<path stroke="#e5c973" vector-effect="non-scaling-stroke" d="
  M 223.50 83.98
  Q 224.19 82.94 224.34 81.85
  A 0.32 0.32 0.0 0 0 223.76 81.61
  L 221.43 84.71"
/>
<path stroke="#b1b9b9" vector-effect="non-scaling-stroke" d="
  M 221.43 84.71
  Q 214.35 83.82 208.16 80.20
  A 0.92 0.91 41.8 0 0 207.16 80.25
  C 197.93 87.05 184.67 86.06 176.68 77.79
  Q 168.39 69.21 170.57 56.43"
/>
<path stroke="#e29490" vector-effect="non-scaling-stroke" d="
  M 261.89 61.90
  Q 253.21 52.47 240.62 53.81
  A 0.89 0.88 68.9 0 1 239.82 53.45
  L 236.00 48.29"
/>
<path stroke="#d6e114" vector-effect="non-scaling-stroke" d="
  M 219.94 99.72
  L 216.94 111.65
  A 0.55 0.54 -77.4 0 0 217.36 112.32
  L 235.47 115.83
  A 0.46 0.45 25.2 0 1 235.74 116.56
  L 209.73 148.34
  A 2.35 2.21 75.7 0 0 209.36 149.01
  L 208.94 150.21"
/>
<path stroke="#a4ba5d" vector-effect="non-scaling-stroke" d="
  M 241.62 100.60
  Q 239.46 99.94 237.23 99.57
  Q 235.07 99.21 230.00 95.98
  A 0.90 0.90 0.0 0 0 229.18 95.90
  L 219.94 99.72"
/>
<path stroke="#c1bd4e" vector-effect="non-scaling-stroke" d="
  M 219.94 99.72
  L 223.57 84.74"
/>
<path stroke="#c3a651" vector-effect="non-scaling-stroke" d="
  M 221.43 84.71
  L 208.54 100.31"
/>
<path stroke="#7ea9c1" vector-effect="non-scaling-stroke" d="
  M 208.54 100.31
  Q 201.94 99.00 196.47 95.87
  A 0.91 0.90 -47.8 0 0 195.48 95.92
  C 182.56 105.27 164.59 99.43 159.48 84.31
  Q 155.78 73.36 163.19 62.25"
/>
<path stroke="#f5cd08" vector-effect="non-scaling-stroke" d="
  M 223.50 83.98
  Q 221.62 85.06 221.27 87.24
  A 1.29 1.17 65.4 0 1 221.14 87.65
  L 205.33 119.32
  A 0.35 0.35 0.0 0 0 205.64 119.83
  L 220.09 119.83
  A 0.36 0.35 13.0 0 1 220.41 120.34
  Q 211.89 137.28 203.89 153.62
  Q 203.36 154.71 202.21 154.75"
/>
<path stroke="#d8ca17" vector-effect="non-scaling-stroke" d="
  M 203.57 148.70
  L 208.60 128.25
  A 0.50 0.50 0.0 0 0 208.21 127.64
  L 197.39 125.51"
/>
<path stroke="#b2b97b" vector-effect="non-scaling-stroke" d="
  M 208.54 100.31
  L 189.81 123.16
  A 0.54 0.54 0.0 0 0 190.12 124.03
  L 197.39 125.51"
/>
<path stroke="#93cd87" vector-effect="non-scaling-stroke" d="
  M 197.39 125.51
  L 185.92 142.63
  A 0.57 0.57 0.0 0 0 186.23 143.49
  L 203.57 148.70"
/>
<path stroke="#b2b97b" vector-effect="non-scaling-stroke" d="
  M 203.57 148.70
  L 202.21 154.75"
/>
<path stroke="#b0cf78" vector-effect="non-scaling-stroke" d="
  M 202.21 154.75
  Q 201.45 156.17 201.48 157.52
  A 0.35 0.34 -26.8 0 0 202.10 157.72
  Q 205.07 153.95 208.12 150.37
  Q 208.49 149.94 208.94 150.21"
/>
<path stroke="#93cd87" vector-effect="non-scaling-stroke" d="
  M 208.94 150.21
  L 223.55 154.77
  A 0.47 0.47 0.0 0 1 223.69 155.60
  L 209.55 166.16
  A 1.57 1.57 0.0 0 0 208.93 167.41
  L 208.91 181.52"
/>
<path stroke="#62a5df" vector-effect="non-scaling-stroke" d="
  M 208.91 181.52
  Q 208.87 182.01 208.62 182.02
  Q 189.64 182.96 172.46 175.12
  A 3.24 3.19 -9.6 0 1 171.49 174.44
  L 170.72 173.65"
/>
<path stroke="#93cd87" vector-effect="non-scaling-stroke" d="
  M 170.72 173.65
  L 180.84 167.21
  A 0.69 0.69 0.0 0 0 180.87 166.06
  L 154.92 147.51
  A 0.75 0.75 0.0 0 1 154.78 146.42
  L 169.50 128.43
  A 0.95 0.94 -48.1 0 0 169.44 127.16
  L 150.98 108.70
  A 2.21 2.20 18.9 0 1 150.37 107.46
  L 144.96 66.99"
/>
<path stroke="#a5dc8d" vector-effect="non-scaling-stroke" d="
  M 245.47 170.53
  L 220.58 170.52
  A 2.09 2.06 -52.6 0 0 220.01 170.60
  C 216.70 171.55 215.45 175.40 218.30 177.57
  C 219.87 178.76 223.29 178.45 225.40 178.45"
/>
<path stroke="#a7d822" vector-effect="non-scaling-stroke" d="
  M 225.40 178.45
  Q 222.73 180.65 218.95 181.05
  Q 214.56 181.51 210.12 182.00
  A 1.18 1.15 57.2 0 1 209.39 181.83
  L 208.91 181.52"
/>
<path stroke="#88b77b" vector-effect="non-scaling-stroke" d="
  M 170.72 173.65
  L 169.44 174.34"
/>
<path stroke="#a7d822" vector-effect="non-scaling-stroke" d="
  M 169.44 174.34
  L 168.96 173.64
  A 2.11 2.02 85.7 0 0 168.26 173.01
  Q 145.52 160.54 134.62 137.47"
/>
<path stroke="#a5dc8d" vector-effect="non-scaling-stroke" d="
  M 134.62 137.47
  Q 134.53 131.24 129.55 124.55"
/>
<path stroke="#a7d822" vector-effect="non-scaling-stroke" d="
  M 129.55 124.55
  L 127.77 113.71
  A 1.15 1.14 15.5 0 0 127.38 113.03
  L 127.09 112.78"
/>
<path stroke="#a5dc8d" vector-effect="non-scaling-stroke" d="
  M 127.09 112.78
  L 126.87 110.43"
/>
<path stroke="#a7d822" vector-effect="non-scaling-stroke" d="
  M 126.87 110.43
  L 127.95 95.23"
/>
<path stroke="#a5dc8d" vector-effect="non-scaling-stroke" d="
  M 127.95 95.23
  Q 131.49 97.86 133.92 94.92
  Q 135.38 93.15 134.75 91.53
  Q 133.79 89.09 130.15 82.32"
/>
<path stroke="#a7d822" vector-effect="non-scaling-stroke" d="
  M 130.15 82.32
  L 132.95 73.05"
/>
<path stroke="#76b17a" vector-effect="non-scaling-stroke" d="
  M 208.91 181.52
  Q 209.25 184.07 208.56 186.13
  A 1.73 1.66 77.6 0 1 208.12 186.85
  L 193.90 201.08
  A 1.99 1.98 -26.9 0 0 193.34 202.78
  L 195.11 214.44"
/>
<path stroke="#93d68c" vector-effect="non-scaling-stroke" d="
  M 241.38 178.41
  L 225.40 178.45"
/>
<path stroke="#93d68c" vector-effect="non-scaling-stroke" d="
  M 229.69 193.90
  L 216.66 193.81
  A 3.75 3.69 -89.9 0 1 212.99 190.07
  L 212.99 189.92
  A 3.71 3.67 89.9 0 1 216.65 186.21
  L 236.37 186.13"
/>
<path stroke="#93d68c" vector-effect="non-scaling-stroke" d="
  M 130.15 82.32
  Q 127.03 79.54 124.30 82.17
  A 3.52 3.51 56.1 0 0 123.53 86.14
  Q 125.58 90.73 127.95 95.23"
/>
<path stroke="#93d68c" vector-effect="non-scaling-stroke" d="
  M 126.87 110.43
  L 122.66 102.47
  A 3.76 3.74 -26.7 0 0 117.72 100.85
  L 117.59 100.91
  A 3.80 3.80 0.0 0 0 115.80 105.97
  C 116.97 108.41 119.33 114.27 121.38 115.54
  C 123.57 116.89 126.44 115.35 127.09 112.78"
/>
<path stroke="#93d68c" vector-effect="non-scaling-stroke" d="
  M 129.55 124.55
  Q 125.92 122.55 123.81 125.68
  C 122.16 128.14 125.63 133.42 126.77 135.83
  Q 128.17 138.80 130.14 139.29
  Q 132.33 139.84 134.62 137.47"
/>
<path stroke="#76b17a" vector-effect="non-scaling-stroke" d="
  M 169.44 174.34
  L 151.28 185.68
  A 1.25 1.25 0.0 0 0 150.73 187.03
  L 157.33 215.62"
/>
<path stroke="#92b45c" vector-effect="non-scaling-stroke" d="
  M 124.53 199.82
  Q 127.21 197.18 127.14 193.82"
/>
<path stroke="#b4d77e" vector-effect="non-scaling-stroke" d="
  M 127.14 193.82
  Q 127.17 189.39 122.18 186.43"
/>
<path stroke="#92b45c" vector-effect="non-scaling-stroke" d="
  M 122.18 186.43
  L 127.98 186.17
  A 1.44 0.98 -16.0 0 0 128.18 186.14
  Q 134.62 184.69 134.88 178.45"
/>
<path stroke="#b4d77e" vector-effect="non-scaling-stroke" d="
  M 134.88 178.45
  Q 135.10 173.65 129.98 170.95"
/>
<path stroke="#92b45c" vector-effect="non-scaling-stroke" d="
  M 129.98 170.95
  L 136.81 170.28
  A 1.11 0.90 -50.9 0 0 137.05 170.23
  Q 142.46 168.41 142.71 162.69"
/>
<path stroke="#b4d77e" vector-effect="non-scaling-stroke" d="
  M 142.71 162.69
  Q 142.37 158.39 139.42 156.45
  Q 137.45 155.15 132.39 155.11
  Q 114.95 154.97 97.43 155.03"
/>
<path stroke="#93d68c" vector-effect="non-scaling-stroke" d="
  M 96.04 136.84
  C 99.07 141.88 105.35 138.72 103.25 133.49
  Q 101.09 128.11 97.55 123.82"
/>
<path stroke="#93d68c" vector-effect="non-scaling-stroke" d="
  M 101.81 109.61
  L 104.45 114.11
  A 3.69 3.69 0.0 0 0 108.97 115.68
  L 109.52 115.47
  A 3.27 3.27 0.0 0 0 111.24 110.93
  L 106.08 100.92"
/>
<path stroke="#93d68c" vector-effect="non-scaling-stroke" d="
  M 111.22 92.91
  C 112.70 96.91 117.31 98.02 119.07 94.02
  C 120.04 91.83 117.53 88.09 116.62 86.23"
/>
<path stroke="#a4ba5d" vector-effect="non-scaling-stroke" d="
  M 139.97 69.13
  Q 136.86 72.05 132.95 73.05"
/>
<path stroke="#92b45c" vector-effect="non-scaling-stroke" d="
  M 132.95 73.05
  Q 132.77 73.05 132.59 73.04"
/>
<path stroke="#b1b9b9" vector-effect="non-scaling-stroke" d="
  M 72.57 154.96
  Q 72.96 159.42 75.98 161.34
  Q 77.96 162.60 83.24 162.62
  Q 112.88 162.74 142.71 162.69"
/>
<path stroke="#b1b9b9" vector-effect="non-scaling-stroke" d="
  M 129.98 170.95
  Q 128.22 170.45 125.75 170.46
  Q 87.81 170.58 82.44 170.35
  A 1.96 1.95 -17.2 0 0 80.79 173.47
  L 82.13 175.26
  A 7.94 7.94 0.0 0 0 88.49 178.45
  L 134.88 178.45"
/>
<path stroke="#b1b9b9" vector-effect="non-scaling-stroke" d="
  M 122.18 186.43
  L 88.88 186.36
  A 0.59 0.58 85.3 0 0 88.31 187.04
  Q 88.96 190.89 91.71 192.77
  Q 93.31 193.86 98.64 193.85
  Q 112.83 193.81 127.14 193.82"
/>
<path stroke="#b1b9b9" vector-effect="non-scaling-stroke" d="
  M 109.72 201.93
  L 94.30 201.89
  A 2.04 2.04 0.0 0 0 92.66 205.15
  L 93.82 206.70
  A 7.23 7.23 0.0 0 0 99.58 209.59
  L 115.49 209.62"
/>
<path stroke="#b1b9b9" vector-effect="non-scaling-stroke" d="
  M 98.29 217.46
  L 90.34 217.20"
/>
<path stroke="#b1b9b9" vector-effect="non-scaling-stroke" d="
  M 142.78 61.19
  C 138.91 60.91 136.11 61.94 132.68 59.47
  A 1.74 1.74 0.0 0 0 130.84 59.34
  Q 122.21 63.88 114.75 58.71
  A 1.04 1.03 -34.5 0 0 113.92 58.56
  Q 113.36 58.70 112.15 59.33
  C 107.16 61.91 101.55 62.05 96.38 59.89
  C 95.01 59.32 94.18 58.59 93.18 58.22
  A 1.32 1.30 -53.8 0 0 91.94 58.42
  C 83.98 64.62 73.68 60.59 72.75 50.42"
/>
<path stroke="#b1b9b9" vector-effect="non-scaling-stroke" d="
  M 88.14 217.20
  Q 88.79 222.78 93.18 224.45
  Q 94.64 225.01 98.41 225.08
  Q 101.07 225.12 103.73 225.30"
/>
<path stroke="#7fcaf0" vector-effect="non-scaling-stroke" d="
  M 197.1803 174.2234
  A 3.72 3.72 0.0 0 0 193.4668 170.4969
  L 185.5268 170.4831
  A 3.72 3.72 0.0 0 0 181.8004 174.1966
  L 181.7997 174.5966
  A 3.72 3.72 0.0 0 0 185.5132 178.3231
  L 193.4532 178.3369
  A 3.72 3.72 0.0 0 0 197.1796 174.6234
  L 197.1803 174.2234"
/>
<path stroke="#a5dc8d" vector-effect="non-scaling-stroke" d="
  M 138.3389 102.4531
  A 3.73 3.73 0.0 0 0 133.3395 100.7706
  L 133.0707 100.9039
  A 3.73 3.73 0.0 0 0 131.3882 105.9034
  L 135.3811 113.9469
  A 3.73 3.73 0.0 0 0 140.3805 115.6294
  L 140.6493 115.4961
  A 3.73 3.73 0.0 0 0 142.3318 110.4966
  L 138.3389 102.4531"
/>
<path stroke="#a5dc8d" vector-effect="non-scaling-stroke" d="
  M 142.1938 121.9497
  A 3.75 3.75 0.0 0 0 137.1472 120.3197
  L 136.8801 120.4564
  A 3.75 3.75 0.0 0 0 135.2501 125.5030
  L 139.2862 133.3903
  A 3.75 3.75 0.0 0 0 144.3328 135.0203
  L 144.5999 134.8836
  A 3.75 3.75 0.0 0 0 146.2299 129.8370
  L 142.1938 121.9497"
/>
<path stroke="#93d68c" vector-effect="non-scaling-stroke" d="
  M 114.9403 125.8779
  A 3.74 3.74 0.0 0 0 109.9100 124.2435
  L 109.6427 124.3797
  A 3.74 3.74 0.0 0 0 108.0083 129.4100
  L 112.0397 137.3221
  A 3.74 3.74 0.0 0 0 117.0700 138.9565
  L 117.3373 138.8203
  A 3.74 3.74 0.0 0 0 118.9717 133.7900
  L 114.9403 125.8779"
/>
<path stroke="#74b4e5" vector-effect="non-scaling-stroke" d="
  M 181.5797 189.7866
  A 3.64 3.64 0.0 0 0 177.9333 186.1529
  L 169.8133 186.1671
  A 3.64 3.64 0.0 0 0 166.1797 189.8134
  L 166.1803 190.1934
  A 3.64 3.64 0.0 0 0 169.8267 193.8271
  L 177.9467 193.8129
  A 3.64 3.64 0.0 0 0 181.5803 190.1666
  L 181.5797 189.7866"
/>
</g>
<path fill="#f3e305" d="
  M 275.17 68.20
  Q 271.27 66.10 267.33 65.43
  L 266.94 60.32
  A 1.72 1.71 80.2 0 1 268.20 58.53
  L 276.52 56.29
  A 0.45 0.44 -27.1 0 0 276.75 55.58
  L 271.00 48.56
  A 1.08 1.08 0.0 0 1 271.00 47.18
  L 276.59 40.34
  A 0.61 0.60 26.9 0 0 276.27 39.37
  L 267.41 37.01
  A 0.68 0.68 0.0 0 1 266.91 36.33
  L 267.40 27.13
  A 0.57 0.57 0.0 0 0 266.63 26.57
  L 258.12 29.87
  A 0.76 0.76 0.0 0 1 257.20 29.57
  L 252.28 21.90
  A 0.53 0.53 0.0 0 0 251.38 21.90
  L 246.41 29.60
  A 0.75 0.75 0.0 0 1 245.51 29.89
  L 236.82 26.52
  A 0.47 0.47 0.0 0 0 236.18 26.99
  L 236.71 36.31
  A 0.67 0.66 83.7 0 1 236.16 37.00
  Q 230.70 37.88 225.91 40.67
  Q 221.41 38.83 215.22 38.11
  Q 214.09 37.10 213.36 35.66
  A 0.45 0.44 -20.7 0 1 213.65 35.03
  L 228.00 31.17
  A 0.83 0.83 0.0 0 0 228.61 30.32
  L 227.76 15.34
  A 0.39 0.38 8.9 0 1 228.29 14.96
  L 242.57 20.49
  A 0.49 0.48 26.5 0 0 243.16 20.30
  L 251.51 7.35
  A 0.38 0.38 0.0 0 1 252.15 7.35
  L 260.43 20.27
  A 0.54 0.54 0.0 0 0 261.08 20.48
  L 275.39 14.93
  A 0.34 0.34 0.0 0 1 275.85 15.27
  L 275.04 30.62
  A 0.51 0.50 9.4 0 0 275.41 31.13
  L 290.24 35.08
  A 0.38 0.37 -62.7 0 1 290.43 35.68
  L 280.80 47.45
  A 0.66 0.65 -45.4 0 0 280.80 48.28
  L 290.36 59.97
  A 0.44 0.43 -26.9 0 1 290.13 60.67
  L 275.53 64.60
  A 0.64 0.64 0.0 0 0 275.05 65.26
  L 275.17 68.20
  Z"
/>
<path fill="#f7b60b" d="
  M 267.33 65.43
  Q 265.93 65.61 264.76 65.37
  A 1.28 1.24 77.5 0 1 263.99 64.86
  L 261.89 61.90
  Q 269.17 54.41 266.90 45.95
  Q 265.12 39.28 259.50 36.15
  C 253.05 32.55 244.42 33.94 239.70 39.92
  Q 236.97 43.37 236.00 48.29
  Q 231.81 44.01 225.91 40.67
  Q 230.70 37.88 236.16 37.00
  A 0.67 0.66 83.7 0 0 236.71 36.31
  L 236.18 26.99
  A 0.47 0.47 0.0 0 1 236.82 26.52
  L 245.51 29.89
  A 0.75 0.75 0.0 0 0 246.41 29.60
  L 251.38 21.90
  A 0.53 0.53 0.0 0 1 252.28 21.90
  L 257.20 29.57
  A 0.76 0.76 0.0 0 0 258.12 29.87
  L 266.63 26.57
  A 0.57 0.57 0.0 0 1 267.40 27.13
  L 266.91 36.33
  A 0.68 0.68 0.0 0 0 267.41 37.01
  L 276.27 39.37
  A 0.61 0.60 26.9 0 1 276.59 40.34
  L 271.00 47.18
  A 1.08 1.08 0.0 0 0 271.00 48.56
  L 276.75 55.58
  A 0.45 0.44 -27.1 0 1 276.52 56.29
  L 268.20 58.53
  A 1.72 1.71 80.2 0 0 266.94 60.32
  L 267.33 65.43
  Z"
/>
<path fill="#d2dbda" d="
  M 142.78 61.19
  C 138.91 60.91 136.11 61.94 132.68 59.47
  A 1.74 1.74 0.0 0 0 130.84 59.34
  Q 122.21 63.88 114.75 58.71
  A 1.04 1.03 -34.5 0 0 113.92 58.56
  Q 113.36 58.70 112.15 59.33
  C 107.16 61.91 101.55 62.05 96.38 59.89
  C 95.01 59.32 94.18 58.59 93.18 58.22
  A 1.32 1.30 -53.8 0 0 91.94 58.42
  C 83.98 64.62 73.68 60.59 72.75 50.42
  L 76.43 49.64
  A 0.80 0.79 -88.8 0 0 77.04 49.05
  Q 78.75 42.24 83.48 38.69
  C 92.70 31.77 103.70 32.69 111.37 41.84
  A 1.28 1.28 0.0 0 0 112.51 42.28
  Q 122.82 40.91 128.58 49.37
  A 1.01 1.00 -17.8 0 0 129.45 49.81
  Q 141.05 49.44 142.78 61.19
  Z"
/>
<path fill="#f14c46" d="
  M 261.89 61.90
  Q 253.21 52.47 240.62 53.81
  A 0.89 0.88 68.9 0 1 239.82 53.45
  L 236.00 48.29
  Q 236.97 43.37 239.70 39.92
  C 244.42 33.94 253.05 32.55 259.50 36.15
  Q 265.12 39.28 266.90 45.95
  Q 269.17 54.41 261.89 61.90
  Z"
/>
<path fill="#d2dbda" d="
  M 215.22 38.11
  Q 221.41 38.83 225.91 40.67
  Q 231.81 44.01 236.00 48.29
  L 239.82 53.45
  A 0.89 0.88 68.9 0 0 240.62 53.81
  Q 253.21 52.47 261.89 61.90
  L 263.99 64.86
  A 1.28 1.24 77.5 0 0 264.76 65.37
  Q 265.93 65.61 267.33 65.43
  Q 271.27 66.10 275.17 68.20
  Q 277.55 70.13 278.60 71.40
  Q 283.28 77.08 282.95 84.12
  Q 274.50 86.03 267.73 82.06
  A 0.99 0.97 46.9 0 0 266.82 82.02
  Q 253.62 88.25 242.05 80.39
  A 1.31 1.28 -41.4 0 0 240.71 80.32
  Q 231.80 85.05 223.57 84.74
  Q 223.61 84.39 223.50 83.98
  Q 224.19 82.94 224.34 81.85
  A 0.32 0.32 0.0 0 0 223.76 81.61
  L 221.43 84.71
  Q 214.35 83.82 208.16 80.20
  A 0.92 0.91 41.8 0 0 207.16 80.25
  C 197.93 87.05 184.67 86.06 176.68 77.79
  Q 168.39 69.21 170.57 56.43
  Q 177.30 52.86 185.04 53.91
  A 0.79 0.78 20.2 0 0 185.81 53.56
  C 192.79 42.94 202.29 37.44 215.22 38.11
  Z"
/>
<path fill="#8f9697" d="
  M 72.75 50.42
  C 73.68 60.59 83.98 64.62 91.94 58.42
  A 1.32 1.30 -53.8 0 1 93.18 58.22
  C 94.18 58.59 95.01 59.32 96.38 59.89
  C 101.55 62.05 107.16 61.91 112.15 59.33
  Q 113.36 58.70 113.92 58.56
  A 1.04 1.03 -34.5 0 1 114.75 58.71
  Q 122.21 63.88 130.84 59.34
  A 1.74 1.74 0.0 0 1 132.68 59.47
  C 136.11 61.94 138.91 60.91 142.78 61.19
  Q 142.78 65.47 139.97 69.13
  Q 136.86 72.05 132.95 73.05
  Q 132.77 73.05 132.59 73.04
  Q 127.98 73.60 124.19 71.04
  A 0.88 0.87 47.3 0 0 123.29 71.00
  Q 114.86 75.69 106.79 70.53
  A 0.95 0.95 0.0 0 0 105.81 70.50
  Q 95.30 76.27 85.13 69.96
  A 0.56 0.55 38.8 0 0 84.45 70.03
  C 80.36 73.94 74.13 74.25 69.61 71.00
  Q 64.06 67.02 65.00 59.49
  Q 65.82 52.85 72.75 50.42
  Z"
/>
<path fill="#8f9697" d="
  M 170.57 56.43
  Q 168.39 69.21 176.68 77.79
  C 184.67 86.06 197.93 87.05 207.16 80.25
  A 0.92 0.91 41.8 0 1 208.16 80.20
  Q 214.35 83.82 221.43 84.71
  L 208.54 100.31
  Q 201.94 99.00 196.47 95.87
  A 0.91 0.90 -47.8 0 0 195.48 95.92
  C 182.56 105.27 164.59 99.43 159.48 84.31
  Q 155.78 73.36 163.19 62.25
  L 170.57 56.43
  Z"
/>
<path fill="#6dbbea" d="
  M 163.19 62.25
  Q 155.78 73.36 159.48 84.31
  C 164.59 99.43 182.56 105.27 195.48 95.92
  A 0.91 0.90 -47.8 0 1 196.47 95.87
  Q 201.94 99.00 208.54 100.31
  L 189.81 123.16
  A 0.54 0.54 0.0 0 0 190.12 124.03
  L 197.39 125.51
  L 185.92 142.63
  A 0.57 0.57 0.0 0 0 186.23 143.49
  L 203.57 148.70
  L 202.21 154.75
  Q 201.45 156.17 201.48 157.52
  A 0.35 0.34 -26.8 0 0 202.10 157.72
  Q 205.07 153.95 208.12 150.37
  Q 208.49 149.94 208.94 150.21
  L 223.55 154.77
  A 0.47 0.47 0.0 0 1 223.69 155.60
  L 209.55 166.16
  A 1.57 1.57 0.0 0 0 208.93 167.41
  L 208.91 181.52
  Q 208.87 182.01 208.62 182.02
  Q 189.64 182.96 172.46 175.12
  A 3.24 3.19 -9.6 0 1 171.49 174.44
  L 170.72 173.65
  L 180.84 167.21
  A 0.69 0.69 0.0 0 0 180.87 166.06
  L 154.92 147.51
  A 0.75 0.75 0.0 0 1 154.78 146.42
  L 169.50 128.43
  A 0.95 0.94 -48.1 0 0 169.44 127.16
  L 150.98 108.70
  A 2.21 2.20 18.9 0 1 150.37 107.46
  L 144.96 66.99
  Q 153.33 63.43 163.19 62.25
  Z
  M 197.1803 174.2234
  A 3.72 3.72 0.0 0 0 193.4668 170.4969
  L 185.5268 170.4831
  A 3.72 3.72 0.0 0 0 181.8004 174.1966
  L 181.7997 174.5966
  A 3.72 3.72 0.0 0 0 185.5132 178.3231
  L 193.4532 178.3369
  A 3.72 3.72 0.0 0 0 197.1796 174.6234
  L 197.1803 174.2234
  Z"
/>
<path fill="#b9de23" d="
  M 144.96 66.99
  L 150.37 107.46
  A 2.21 2.20 18.9 0 0 150.98 108.70
  L 169.44 127.16
  A 0.95 0.94 -48.1 0 1 169.50 128.43
  L 154.78 146.42
  A 0.75 0.75 0.0 0 0 154.92 147.51
  L 180.87 166.06
  A 0.69 0.69 0.0 0 1 180.84 167.21
  L 170.72 173.65
  L 169.44 174.34
  L 168.96 173.64
  A 2.11 2.02 85.7 0 0 168.26 173.01
  Q 145.52 160.54 134.62 137.47
  Q 134.53 131.24 129.55 124.55
  L 127.77 113.71
  A 1.15 1.14 15.5 0 0 127.38 113.03
  L 127.09 112.78
  L 126.87 110.43
  L 127.95 95.23
  Q 131.49 97.86 133.92 94.92
  Q 135.38 93.15 134.75 91.53
  Q 133.79 89.09 130.15 82.32
  L 132.95 73.05
  Q 136.86 72.05 139.97 69.13
  L 144.96 66.99
  Z
  M 138.3389 102.4531
  A 3.73 3.73 0.0 0 0 133.3395 100.7706
  L 133.0707 100.9039
  A 3.73 3.73 0.0 0 0 131.3882 105.9034
  L 135.3811 113.9469
  A 3.73 3.73 0.0 0 0 140.3805 115.6294
  L 140.6493 115.4961
  A 3.73 3.73 0.0 0 0 142.3318 110.4966
  L 138.3389 102.4531
  Z
  M 142.1938 121.9497
  A 3.75 3.75 0.0 0 0 137.1472 120.3197
  L 136.8801 120.4564
  A 3.75 3.75 0.0 0 0 135.2501 125.5030
  L 139.2862 133.3903
  A 3.75 3.75 0.0 0 0 144.3328 135.0203
  L 144.5999 134.8836
  A 3.75 3.75 0.0 0 0 146.2299 129.8370
  L 142.1938 121.9497
  Z"
/>
<path fill="#95d221" d="
  M 132.95 73.05
  L 130.15 82.32
  Q 127.03 79.54 124.30 82.17
  A 3.52 3.51 56.1 0 0 123.53 86.14
  Q 125.58 90.73 127.95 95.23
  L 126.87 110.43
  L 122.66 102.47
  A 3.76 3.74 -26.7 0 0 117.72 100.85
  L 117.59 100.91
  A 3.80 3.80 0.0 0 0 115.80 105.97
  C 116.97 108.41 119.33 114.27 121.38 115.54
  C 123.57 116.89 126.44 115.35 127.09 112.78
  L 127.38 113.03
  A 1.15 1.14 15.5 0 1 127.77 113.71
  L 129.55 124.55
  Q 125.92 122.55 123.81 125.68
  C 122.16 128.14 125.63 133.42 126.77 135.83
  Q 128.17 138.80 130.14 139.29
  Q 132.33 139.84 134.62 137.47
  Q 145.52 160.54 168.26 173.01
  A 2.11 2.02 85.7 0 1 168.96 173.64
  L 169.44 174.34
  L 151.28 185.68
  A 1.25 1.25 0.0 0 0 150.73 187.03
  L 157.33 215.62
  Q 139.00 211.65 124.53 199.82
  Q 127.21 197.18 127.14 193.82
  Q 127.17 189.39 122.18 186.43
  L 127.98 186.17
  A 1.44 0.98 -16.0 0 0 128.18 186.14
  Q 134.62 184.69 134.88 178.45
  Q 135.10 173.65 129.98 170.95
  L 136.81 170.28
  A 1.11 0.90 -50.9 0 0 137.05 170.23
  Q 142.46 168.41 142.71 162.69
  Q 142.37 158.39 139.42 156.45
  Q 137.45 155.15 132.39 155.11
  Q 114.95 154.97 97.43 155.03
  Q 95.51 146.16 96.04 136.84
  C 99.07 141.88 105.35 138.72 103.25 133.49
  Q 101.09 128.11 97.55 123.82
  Q 98.45 116.86 101.81 109.61
  L 104.45 114.11
  A 3.69 3.69 0.0 0 0 108.97 115.68
  L 109.52 115.47
  A 3.27 3.27 0.0 0 0 111.24 110.93
  L 106.08 100.92
  L 111.22 92.91
  C 112.70 96.91 117.31 98.02 119.07 94.02
  C 120.04 91.83 117.53 88.09 116.62 86.23
  Q 123.83 78.77 132.59 73.04
  Q 132.77 73.05 132.95 73.05
  Z
  M 114.9403 125.8779
  A 3.74 3.74 0.0 0 0 109.9100 124.2435
  L 109.6427 124.3797
  A 3.74 3.74 0.0 0 0 108.0083 129.4100
  L 112.0397 137.3221
  A 3.74 3.74 0.0 0 0 117.0700 138.9565
  L 117.3373 138.8203
  A 3.74 3.74 0.0 0 0 118.9717 133.7900
  L 114.9403 125.8779
  Z"
/>
<path fill="#8f9697" d="
  M 282.95 84.12
  Q 281.88 94.04 273.80 98.32
  Q 265.01 102.99 255.97 97.71
  A 0.97 0.95 46.5 0 0 255.06 97.68
  C 250.35 99.93 246.93 100.32 241.62 100.60
  Q 239.46 99.94 237.23 99.57
  Q 235.07 99.21 230.00 95.98
  A 0.90 0.90 0.0 0 0 229.18 95.90
  L 219.94 99.72
  L 223.57 84.74
  Q 231.80 85.05 240.71 80.32
  A 1.31 1.28 -41.4 0 1 242.05 80.39
  Q 253.62 88.25 266.82 82.02
  A 0.99 0.97 46.9 0 1 267.73 82.06
  Q 274.50 86.03 282.95 84.12
  Z"
/>
<rect fill="#90d9f6" x="-3.88" y="-8.20" transform="translate(97.89,88.73) rotate(-26.7)" width="7.76" height="16.40" rx="3.73"/>
<path fill="#90d9f6" d="
  M 116.62 86.23
  C 117.53 88.09 120.04 91.83 119.07 94.02
  C 117.31 98.02 112.70 96.91 111.22 92.91
  Q 108.28 87.38 107.70 85.77
  C 106.57 82.63 110.73 79.77 113.53 81.51
  C 114.96 82.40 115.82 84.63 116.62 86.23
  Z"
/>
<path fill="#90d9f6" d="
  M 130.15 82.32
  Q 133.79 89.09 134.75 91.53
  Q 135.38 93.15 133.92 94.92
  Q 131.49 97.86 127.95 95.23
  Q 125.58 90.73 123.53 86.14
  A 3.52 3.51 56.1 0 1 124.30 82.17
  Q 127.03 79.54 130.15 82.32
  Z"
/>
<rect fill="#90d9f6" x="-3.89" y="-8.18" transform="translate(82.30,88.72) rotate(-26.6)" width="7.78" height="16.36" rx="3.73"/>
<path fill="#f7b60b" d="
  M 223.50 83.98
  Q 221.62 85.06 221.27 87.24
  A 1.29 1.17 65.4 0 1 221.14 87.65
  L 205.33 119.32
  A 0.35 0.35 0.0 0 0 205.64 119.83
  L 220.09 119.83
  A 0.36 0.35 13.0 0 1 220.41 120.34
  Q 211.89 137.28 203.89 153.62
  Q 203.36 154.71 202.21 154.75
  L 203.57 148.70
  L 208.60 128.25
  A 0.50 0.50 0.0 0 0 208.21 127.64
  L 197.39 125.51
  L 190.12 124.03
  A 0.54 0.54 0.0 0 1 189.81 123.16
  L 208.54 100.31
  L 221.43 84.71
  L 223.76 81.61
  A 0.32 0.32 0.0 0 1 224.34 81.85
  Q 224.19 82.94 223.50 83.98
  Z"
/>
<path fill="#f3e305" d="
  M 223.50 83.98
  Q 223.61 84.39 223.57 84.74
  L 219.94 99.72
  L 216.94 111.65
  A 0.55 0.54 -77.4 0 0 217.36 112.32
  L 235.47 115.83
  A 0.46 0.45 25.2 0 1 235.74 116.56
  L 209.73 148.34
  A 2.35 2.21 75.7 0 0 209.36 149.01
  L 208.94 150.21
  Q 208.49 149.94 208.12 150.37
  Q 205.07 153.95 202.10 157.72
  A 0.35 0.34 -26.8 0 1 201.48 157.52
  Q 201.45 156.17 202.21 154.75
  Q 203.36 154.71 203.89 153.62
  Q 211.89 137.28 220.41 120.34
  A 0.36 0.35 13.0 0 0 220.09 119.83
  L 205.64 119.83
  A 0.35 0.35 0.0 0 1 205.33 119.32
  L 221.14 87.65
  A 1.29 1.17 65.4 0 0 221.27 87.24
  Q 221.62 85.06 223.50 83.98
  Z"
/>
<path fill="#b9de23" d="
  M 241.62 100.60
  Q 260.05 134.55 245.47 170.53
  L 220.58 170.52
  A 2.09 2.06 -52.6 0 0 220.01 170.60
  C 216.70 171.55 215.45 175.40 218.30 177.57
  C 219.87 178.76 223.29 178.45 225.40 178.45
  Q 222.73 180.65 218.95 181.05
  Q 214.56 181.51 210.12 182.00
  A 1.18 1.15 57.2 0 1 209.39 181.83
  L 208.91 181.52
  L 208.93 167.41
  A 1.57 1.57 0.0 0 1 209.55 166.16
  L 223.69 155.60
  A 0.47 0.47 0.0 0 0 223.55 154.77
  L 208.94 150.21
  L 209.36 149.01
  A 2.35 2.21 75.7 0 1 209.73 148.34
  L 235.74 116.56
  A 0.46 0.45 25.2 0 0 235.47 115.83
  L 217.36 112.32
  A 0.55 0.54 -77.4 0 1 216.94 111.65
  L 219.94 99.72
  L 229.18 95.90
  A 0.90 0.90 0.0 0 1 230.00 95.98
  Q 235.07 99.21 237.23 99.57
  Q 239.46 99.94 241.62 100.60
  Z"
/>
<rect fill="#90d9f6" x="-3.88" y="-8.22" transform="translate(90.10,108.19) rotate(-26.4)" width="7.76" height="16.44" rx="3.72"/>
<path fill="#90d9f6" d="
  M 106.08 100.92
  L 111.24 110.93
  A 3.27 3.27 0.0 0 1 109.52 115.47
  L 108.97 115.68
  A 3.69 3.69 0.0 0 1 104.45 114.11
  L 101.81 109.61
  C 101.18 107.40 98.97 104.91 100.22 102.56
  Q 101.92 99.36 106.08 100.92
  Z"
/>
<path fill="#90d9f6" d="
  M 126.87 110.43
  L 127.09 112.78
  C 126.44 115.35 123.57 116.89 121.38 115.54
  C 119.33 114.27 116.97 108.41 115.80 105.97
  A 3.80 3.80 0.0 0 1 117.59 100.91
  L 117.72 100.85
  A 3.76 3.74 -26.7 0 1 122.66 102.47
  L 126.87 110.43
  Z"
/>
<rect fill="#90d9f6" x="-3.88" y="-8.22" transform="translate(136.86,108.20) rotate(-26.4)" width="7.76" height="16.44" rx="3.73"/>
<rect fill="#90d9f6" x="-3.90" y="-8.18" transform="translate(140.74,127.67) rotate(-27.1)" width="7.80" height="16.36" rx="3.75"/>
<path fill="#90d9f6" d="
  M 97.55 123.82
  Q 101.09 128.11 103.25 133.49
  C 105.35 138.72 99.07 141.88 96.04 136.84
  Q 94.52 133.32 92.53 129.57
  Q 91.79 128.17 92.22 126.65
  Q 93.16 123.33 97.55 123.82
  Z"
/>
<rect fill="#90d9f6" x="-3.89" y="-8.18" transform="translate(113.49,131.60) rotate(-27.0)" width="7.78" height="16.36" rx="3.74"/>
<path fill="#90d9f6" d="
  M 129.55 124.55
  Q 134.53 131.24 134.62 137.47
  Q 132.33 139.84 130.14 139.29
  Q 128.17 138.80 126.77 135.83
  C 125.63 133.42 122.16 128.14 123.81 125.68
  Q 125.92 122.55 129.55 124.55
  Z"
/>
<path fill="#b9de23" d="
  M 203.57 148.70
  L 186.23 143.49
  A 0.57 0.57 0.0 0 1 185.92 142.63
  L 197.39 125.51
  L 208.21 127.64
  A 0.50 0.50 0.0 0 1 208.60 128.25
  L 203.57 148.70
  Z"
/>
<path fill="#8f9697" d="
  M 72.57 154.96
  Q 72.96 159.42 75.98 161.34
  Q 77.96 162.60 83.24 162.62
  Q 112.88 162.74 142.71 162.69
  Q 142.46 168.41 137.05 170.23
  A 1.11 0.90 -50.9 0 1 136.81 170.28
  L 129.98 170.95
  Q 128.22 170.45 125.75 170.46
  Q 87.81 170.58 82.44 170.35
  A 1.96 1.95 -17.2 0 0 80.79 173.47
  L 82.13 175.26
  A 7.94 7.94 0.0 0 0 88.49 178.45
  L 134.88 178.45
  Q 134.62 184.69 128.18 186.14
  A 1.44 0.98 -16.0 0 1 127.98 186.17
  L 122.18 186.43
  L 88.88 186.36
  A 0.59 0.58 85.3 0 0 88.31 187.04
  Q 88.96 190.89 91.71 192.77
  Q 93.31 193.86 98.64 193.85
  Q 112.83 193.81 127.14 193.82
  Q 127.21 197.18 124.53 199.82
  C 120.46 202.83 114.53 201.79 109.72 201.93
  L 94.30 201.89
  A 2.04 2.04 0.0 0 0 92.66 205.15
  L 93.82 206.70
  A 7.23 7.23 0.0 0 0 99.58 209.59
  L 115.49 209.62
  Q 115.11 214.04 111.96 216.04
  Q 109.98 217.29 105.25 217.36
  Q 101.86 217.41 98.29 217.46
  L 90.34 217.20
  C 82.54 214.93 82.23 205.63 89.10 202.18
  A 0.18 0.18 0.0 0 0 89.03 201.84
  Q 82.48 201.61 80.74 196.34
  C 79.79 193.48 80.65 189.02 83.80 187.46
  Q 84.51 187.11 85.36 186.46
  A 0.20 0.19 -65.4 0 0 85.23 186.11
  C 79.60 186.42 74.06 186.39 72.66 179.81
  C 71.85 176.00 73.97 172.23 77.83 171.04
  A 0.29 0.28 -53.4 0 0 77.75 170.48
  L 70.85 170.48
  A 1.37 1.35 53.7 0 1 70.42 170.41
  C 66.83 169.13 64.80 166.49 64.94 162.46
  Q 65.15 155.74 72.57 154.96
  Z"
/>
<path fill="#d2dbda" d="
  M 97.43 155.03
  Q 114.95 154.97 132.39 155.11
  Q 137.45 155.15 139.42 156.45
  Q 142.37 158.39 142.71 162.69
  Q 112.88 162.74 83.24 162.62
  Q 77.96 162.60 75.98 161.34
  Q 72.96 159.42 72.57 154.96
  L 97.43 155.03
  Z"
/>
<path fill="#90d9f6" d="
  M 229.69 193.90
  L 216.66 193.81
  A 3.75 3.69 -89.9 0 1 212.99 190.07
  L 212.99 189.92
  A 3.71 3.67 89.9 0 1 216.65 186.21
  L 236.37 186.13
  Q 254.12 186.13 271.70 186.13
  Q 277.84 186.13 279.53 184.87
  C 285.74 180.23 283.00 171.04 275.23 170.52
  C 270.78 170.22 269.91 164.96 273.73 163.04
  Q 275.08 162.36 278.76 163.29
  C 293.45 166.99 295.06 187.15 280.74 192.94
  Q 278.55 193.83 273.15 193.83
  Q 251.20 193.83 229.69 193.90
  Z"
/>
<path fill="#d2dbda" d="
  M 129.98 170.95
  Q 135.10 173.65 134.88 178.45
  L 88.49 178.45
  A 7.94 7.94 0.0 0 1 82.13 175.26
  L 80.79 173.47
  A 1.96 1.95 -17.2 0 1 82.44 170.35
  Q 87.81 170.58 125.75 170.46
  Q 128.22 170.45 129.98 170.95
  Z"
/>
<rect fill="#90d9f6" x="-7.69" y="-3.92" transform="translate(189.49,174.41) rotate(0.1)" width="15.38" height="7.84" rx="3.72"/>
<path fill="#90d9f6" d="
  M 245.47 170.53
  Q 249.49 169.96 251.09 172.29
  C 252.68 174.62 251.13 178.30 248.27 178.35
  Q 244.69 178.41 241.38 178.41
  L 225.40 178.45
  C 223.29 178.45 219.87 178.76 218.30 177.57
  C 215.45 175.40 216.70 171.55 220.01 170.60
  A 2.09 2.06 -52.6 0 1 220.58 170.52
  L 245.47 170.53
  Z"
/>
<path fill="#578fd3" d="
  M 170.72 173.65
  L 171.49 174.44
  A 3.24 3.19 -9.6 0 0 172.46 175.12
  Q 189.64 182.96 208.62 182.02
  Q 208.87 182.01 208.91 181.52
  Q 209.25 184.07 208.56 186.13
  A 1.73 1.66 77.6 0 1 208.12 186.85
  L 193.90 201.08
  A 1.99 1.98 -26.9 0 0 193.34 202.78
  L 195.11 214.44
  Q 176.09 219.69 157.33 215.62
  L 150.73 187.03
  A 1.25 1.25 0.0 0 1 151.28 185.68
  L 169.44 174.34
  L 170.72 173.65
  Z
  M 181.5797 189.7866
  A 3.64 3.64 0.0 0 0 177.9333 186.1529
  L 169.8133 186.1671
  A 3.64 3.64 0.0 0 0 166.1797 189.8134
  L 166.1803 190.1934
  A 3.64 3.64 0.0 0 0 169.8267 193.8271
  L 177.9467 193.8129
  A 3.64 3.64 0.0 0 0 181.5803 190.1666
  L 181.5797 189.7866
  Z"
/>
<path fill="#95d221" d="
  M 241.38 178.41
  L 236.37 186.13
  L 216.65 186.21
  A 3.71 3.67 89.9 0 0 212.99 189.92
  L 212.99 190.07
  A 3.75 3.69 -89.9 0 0 216.66 193.81
  L 229.69 193.90
  Q 214.81 208.87 195.11 214.44
  L 193.34 202.78
  A 1.99 1.98 -26.9 0 1 193.90 201.08
  L 208.12 186.85
  A 1.73 1.66 77.6 0 0 208.56 186.13
  Q 209.25 184.07 208.91 181.52
  L 209.39 181.83
  A 1.18 1.15 57.2 0 0 210.12 182.00
  Q 214.56 181.51 218.95 181.05
  Q 222.73 180.65 225.40 178.45
  L 241.38 178.41
  Z"
/>
<rect fill="#90d9f6" x="-7.70" y="-3.83" transform="translate(173.88,189.99) rotate(-0.1)" width="15.40" height="7.66" rx="3.64"/>
<path fill="#d2dbda" d="
  M 122.18 186.43
  Q 127.17 189.39 127.14 193.82
  Q 112.83 193.81 98.64 193.85
  Q 93.31 193.86 91.71 192.77
  Q 88.96 190.89 88.31 187.04
  A 0.59 0.58 85.3 0 1 88.88 186.36
  L 122.18 186.43
  Z"
/>
<path fill="#d2dbda" d="
  M 109.72 201.93
  Q 115.18 204.09 115.49 209.62
  L 99.58 209.59
  A 7.23 7.23 0.0 0 1 93.82 206.70
  L 92.66 205.15
  A 2.04 2.04 0.0 0 1 94.30 201.89
  L 109.72 201.93
  Z"
/>
<path fill="#90d9f6" d="
  M 228.62 205.72
  L 228.62 205.51
  A 3.77 3.76 -0.6 0 1 232.31 201.75
  Q 233.07 201.73 251.32 201.68
  Q 259.04 201.65 262.33 203.24
  C 272.08 207.93 274.39 220.98 266.34 228.56
  Q 261.38 233.21 254.73 232.61
  C 251.17 232.29 250.99 227.41 253.81 225.61
  A 2.25 2.08 -63.7 0 1 254.62 225.30
  Q 258.48 224.68 259.03 224.32
  Q 265.79 219.97 262.34 213.46
  Q 260.24 209.51 254.99 209.49
  Q 245.40 209.47 232.42 209.51
  A 3.79 3.78 -0.0 0 1 228.62 205.72
  Z"
/>
<path fill="#8f9697" d="
  M 88.14 217.20
  Q 88.79 222.78 93.18 224.45
  Q 94.64 225.01 98.41 225.08
  Q 101.07 225.12 103.73 225.30
  C 103.39 230.61 99.89 232.97 94.76 232.85
  C 90.28 232.74 84.18 234.01 81.46 229.18
  Q 79.26 225.27 81.29 221.24
  Q 83.12 217.61 88.14 217.20
  Z"
/>
<path fill="#d2dbda" d="
  M 90.34 217.20
  L 98.29 217.46
  Q 103.84 220.11 103.73 225.30
  Q 101.07 225.12 98.41 225.08
  Q 94.64 225.01 93.18 224.45
  Q 88.79 222.78 88.14 217.20
  Q 89.21 217.39 90.34 217.20
  Z"
/>
<rect fill="#90d9f6" x="201.20" y="217.29" width="35.00" height="7.86" rx="3.83"/>
</svg>
