<?xml version="1.0" encoding="UTF-8" standalone="no"?>
<!DOCTYPE svg PUBLIC "-//W3C//DTD SVG 1.1//EN" "http://www.w3.org/Graphics/SVG/1.1/DTD/svg11.dtd">
<svg xmlns="http://www.w3.org/2000/svg" version="1.1" viewBox="0.00 0.00 1024.00 1024.00" width="1024.00" height="1024.00">
<path fill="#21a0bb" d="
  M 261.53 523.87
  C 269.94 540.52 282.06 554.70 298.59 563.67
  C 310.78 570.28 323.91 574.40 337.99 576.03
  C 340.26 576.29 341.53 577.92 342.59 580.08
  C 354.31 603.99 374.97 622.84 401.02 629.65
  C 413.97 633.04 427.37 633.27 441.24 630.35
  C 459.03 626.60 473.68 617.51 485.18 603.06
  C 493.95 592.05 499.11 578.85 500.65 563.48
  C 500.88 561.24 500.98 556.94 500.96 550.59
  C 500.96 550.28 500.71 550.03 500.40 550.02
  C 492.11 549.73 485.38 549.66 477.72 553.70
  C 473.83 555.75 471.48 558.89 470.67 563.11
  C 469.94 566.87 470.89 570.93 470.93 574.74
  C 470.96 576.79 470.26 579.28 468.85 582.21
  C 468.66 582.60 468.41 582.96 468.11 583.26
  C 462.01 589.33 452.31 587.64 448.43 579.81
  C 446.40 575.70 445.66 570.99 446.23 565.66
  C 447.95 549.36 459.85 535.74 475.26 530.44
  C 481.83 528.18 488.74 527.23 495.99 527.60
  C 497.92 527.70 499.14 527.74 499.67 527.73
  C 499.97 527.72 500.20 527.47 500.19 527.17
  C 499.93 521.14 499.83 514.58 499.88 507.48
  C 499.91 503.48 500.66 500.53 502.13 498.62
  C 504.69 495.30 508.07 493.73 512.27 493.90
  C 516.95 494.09 520.30 495.93 522.32 499.42
  C 523.43 501.33 523.97 504.98 523.94 510.36
  C 523.85 527.90 523.85 539.94 523.93 546.48
  C 524.11 560.25 523.60 570.23 522.40 576.42
  C 519.80 589.80 514.87 601.92 507.61 612.77
  C 507.27 613.27 507.32 613.95 507.74 614.39
  C 512.86 619.90 518.96 623.81 526.05 626.14
  C 530.19 627.50 535.10 628.39 540.77 628.81
  C 545.08 629.13 550.06 628.86 555.71 627.99
  C 566.36 626.36 576.80 623.44 587.04 619.23
  C 612.99 608.57 637.38 591.72 658.35 572.79
  C 686.58 547.28 708.43 517.09 723.90 482.22
  C 726.77 475.74 729.27 469.30 731.42 462.90
  C 735.09 451.93 738.53 440.76 741.72 429.37
  C 741.82 429.01 741.47 428.68 741.12 428.81
  C 739.32 429.47 737.61 429.93 736.00 430.18
  C 731.16 430.94 728.01 431.60 723.83 430.00
  C 723.51 429.88 723.21 429.72 722.94 429.51
  C 718.42 426.08 719.91 420.79 722.80 416.80
  C 731.83 404.31 741.21 392.02 750.93 379.92
  C 752.49 377.97 756.03 373.47 758.78 371.81
  C 763.99 368.68 768.66 369.44 772.77 374.09
  C 774.62 376.18 775.58 380.00 776.03 382.75
  C 778.88 400.04 781.87 417.12 785.00 433.99
  C 785.96 439.17 782.83 444.55 776.97 443.67
  C 773.28 443.11 767.88 436.45 765.81 433.65
  C 765.69 433.49 765.44 433.54 765.39 433.73
  C 763.21 442.38 760.62 451.52 757.62 461.14
  C 742.95 508.22 717.88 548.89 682.41 583.16
  C 672.28 592.94 662.47 601.46 652.98 608.72
  C 641.74 617.31 629.74 625.06 616.98 631.99
  C 603.43 639.34 589.15 645.06 574.14 649.15
  C 562.27 652.38 550.56 653.68 539.02 653.07
  C 520.40 652.08 504.59 645.09 491.59 632.08
  C 491.26 631.75 490.73 631.71 490.36 632.00
  C 482.66 638.03 473.31 644.39 464.05 648.10
  C 457.54 650.70 450.66 652.80 443.41 654.41
  C 431.54 657.04 416.56 657.16 405.44 655.50
  C 393.63 653.75 381.56 649.79 370.63 643.75
  C 351.38 633.11 336.36 618.24 325.57 599.15
  C 325.28 598.65 324.77 598.31 324.20 598.24
  C 316.49 597.33 308.75 595.24 300.99 591.97
  C 279.23 582.81 261.89 568.64 248.98 549.47
  C 237.51 532.44 230.03 513.86 226.53 493.73
  C 224.56 482.36 223.75 471.03 224.10 459.76
  C 224.19 456.60 224.71 453.57 225.06 449.76
  C 226.63 432.40 231.23 416.07 238.84 400.78
  C 239.22 400.02 239.19 399.13 238.77 398.39
  C 234.51 390.92 231.42 382.71 229.51 373.76
  C 228.54 369.21 227.81 364.62 227.34 360.00
  C 226.97 356.34 226.81 351.34 226.87 345.01
  C 226.92 339.24 227.24 334.24 227.81 330.02
  C 232.34 296.57 251.16 267.16 279.60 248.83
  C 279.94 248.61 280.13 248.23 280.12 247.83
  C 279.99 243.06 280.14 238.98 280.57 235.61
  C 284.57 204.23 306.47 178.44 334.99 165.87
  C 344.95 161.48 354.45 159.59 365.51 159.10
  C 366.45 159.06 367.30 158.54 367.76 157.72
  C 369.06 155.42 371.20 151.18 373.40 148.06
  C 392.07 121.52 419.53 106.35 452.23 104.16
  C 469.93 102.97 486.51 106.02 501.98 113.29
  C 505.51 114.95 508.55 116.80 511.10 118.84
  C 511.69 119.31 512.53 119.33 513.14 118.89
  C 518.64 114.94 524.59 111.82 531.00 109.53
  C 543.71 105.00 557.13 103.16 571.27 104.02
  C 591.25 105.24 609.20 111.44 625.11 122.61
  C 640.74 133.59 652.99 149.47 659.22 167.73
  C 659.59 168.84 660.67 169.55 662.46 169.88
  C 679.03 172.91 693.74 180.26 706.59 191.94
  C 722.67 206.56 732.36 224.60 735.67 246.05
  C 736.13 249.04 736.50 252.53 736.78 256.51
  C 737.30 264.08 736.95 273.46 730.96 278.59
  C 728.47 280.72 725.60 281.67 722.37 281.42
  C 714.03 280.79 711.34 273.91 710.97 266.50
  C 710.70 260.98 711.42 253.79 710.65 247.51
  C 707.54 222.34 688.61 202.03 664.94 193.92
  C 664.53 193.78 664.09 194.08 664.08 194.51
  C 663.73 203.49 661.95 212.24 657.58 220.25
  C 651.77 230.90 643.02 238.51 631.33 243.09
  C 630.38 243.46 627.86 244.11 623.79 245.02
  C 623.44 245.10 623.13 245.32 622.94 245.62
  C 622.74 245.93 622.39 246.87 621.89 248.42
  C 619.11 257.05 610.35 263.92 602.05 266.42
  C 596.02 268.23 589.80 268.38 583.41 266.87
  C 567.01 262.99 556.51 247.64 558.33 230.95
  C 560.00 215.60 572.63 202.59 588.59 201.41
  C 601.52 200.46 611.74 205.06 619.26 215.21
  C 620.69 217.14 621.45 219.02 622.37 221.02
  C 622.58 221.48 623.14 221.65 623.57 221.40
  C 648.79 206.94 640.26 174.89 625.28 157.03
  C 611.01 140.04 592.14 129.57 569.99 128.04
  C 559.90 127.34 549.76 128.68 539.57 132.06
  C 535.94 133.26 531.16 135.76 525.21 139.56
  C 524.83 139.80 524.58 140.20 524.53 140.65
  C 524.38 141.89 524.31 143.18 524.32 144.53
  C 524.35 165.71 524.35 229.54 524.31 336.01
  C 524.31 341.18 524.40 346.58 522.65 351.15
  C 520.60 356.50 517.48 361.02 513.31 364.71
  C 507.93 369.45 501.36 370.85 493.82 372.06
  C 491.61 372.41 489.18 373.40 486.54 375.03
  C 481.20 378.31 475.56 382.80 469.74 385.78
  C 464.52 388.46 459.20 390.44 453.78 391.73
  C 453.20 391.87 452.81 392.41 452.86 393.01
  C 453.30 398.31 453.60 404.14 453.75 410.49
  C 454.22 429.49 449.27 449.00 436.76 463.73
  C 425.91 476.51 412.52 484.70 396.58 488.30
  C 388.39 490.15 380.51 490.31 372.95 488.80
  C 363.92 487.00 358.39 478.40 362.97 470.00
  C 364.86 466.53 368.03 464.42 372.50 463.65
  C 372.81 463.60 373.11 463.58 373.42 463.61
  C 375.99 463.84 378.94 464.03 382.25 464.18
  C 396.21 464.78 406.87 459.77 416.50 450.11
  C 424.21 442.39 427.29 433.44 429.06 422.79
  C 430.56 413.76 429.69 403.40 428.96 393.62
  C 428.91 392.87 428.33 392.27 427.59 392.18
  C 419.36 391.17 411.81 388.12 404.94 383.05
  C 390.01 372.01 378.98 363.62 371.85 357.88
  C 369.49 355.98 366.68 353.72 363.43 351.09
  C 363.13 350.85 362.70 350.87 362.42 351.13
  C 351.66 361.37 336.51 366.37 321.88 366.21
  C 316.91 366.16 313.26 365.43 310.93 364.03
  C 305.85 360.98 303.11 353.98 306.42 348.42
  C 309.33 343.52 313.80 341.83 319.46 341.91
  C 329.93 342.07 340.78 340.22 347.51 331.71
  C 355.05 322.19 351.71 308.35 344.33 300.09
  C 339.11 294.26 334.22 289.13 336.17 281.44
  C 337.12 277.73 339.52 275.30 343.38 274.17
  C 349.63 272.34 354.66 275.62 358.82 279.92
  C 371.98 293.54 377.36 309.85 374.97 328.86
  C 374.88 329.52 375.15 330.17 375.68 330.57
  C 391.19 342.46 405.43 353.22 418.40 362.83
  C 423.58 366.67 427.83 368.35 434.78 369.41
  C 437.47 369.82 439.98 369.89 442.29 369.62
  C 450.65 368.65 457.84 366.07 463.87 361.90
  C 472.42 355.97 477.96 351.24 486.50 349.44
  C 490.80 348.53 494.98 347.70 499.03 346.96
  C 499.56 346.87 499.97 346.43 500.03 345.89
  C 500.30 343.56 500.43 340.68 500.42 337.25
  C 500.41 334.78 500.41 271.03 500.42 146.00
  C 500.42 145.19 500.31 143.72 500.09 141.59
  C 500.04 141.07 499.75 140.60 499.31 140.32
  C 485.73 131.67 470.61 127.80 453.96 128.72
  C 444.21 129.26 435.71 131.09 428.46 134.21
  C 414.63 140.16 403.38 148.74 394.71 159.97
  C 392.82 162.42 390.61 165.93 388.08 170.51
  C 385.95 174.39 384.19 176.94 382.41 180.08
  C 381.92 180.94 381.03 181.49 380.04 181.54
  C 373.71 181.86 366.42 181.57 359.94 182.88
  C 344.73 185.95 332.27 192.42 322.58 202.29
  C 311.87 213.20 304.62 228.82 303.42 244.84
  C 303.06 249.73 302.97 254.47 303.15 259.06
  C 303.21 260.35 302.53 261.55 301.40 262.16
  C 273.03 277.64 254.84 304.12 251.28 336.52
  C 250.70 341.77 250.64 347.84 251.11 354.73
  C 251.90 366.22 254.75 376.95 259.68 386.90
  C 261.23 390.02 263.98 394.04 265.75 397.57
  C 266.04 398.16 266.06 398.85 265.81 399.45
  C 262.12 408.04 257.19 418.57 254.84 427.50
  C 252.42 436.67 251.37 445.82 251.69 454.96
  C 252.03 464.64 253.99 473.58 257.56 481.78
  C 266.98 503.40 284.04 516.54 308.74 521.20
  C 321.37 523.58 333.96 523.83 346.49 521.96
  C 356.14 520.51 365.16 518.46 373.56 515.81
  C 398.25 508.00 421.02 498.50 441.85 487.31
  C 461.40 476.80 480.86 465.77 500.22 454.20
  C 507.30 449.97 514.37 445.89 521.43 441.95
  C 521.88 441.70 521.83 441.03 521.34 440.86
  C 520.77 440.66 519.76 440.09 518.31 439.16
  C 514.52 436.73 505.43 430.48 491.04 420.43
  C 487.75 418.13 485.84 416.31 485.32 414.98
  C 483.48 410.26 486.01 406.42 490.38 404.13
  C 494.65 401.88 501.20 398.48 510.04 393.92
  C 511.44 393.19 513.06 393.03 514.58 393.47
  L 557.13 405.69
  C 557.60 405.83 558.11 405.76 558.52 405.49
  L 615.92 368.34
  C 616.25 368.13 616.26 367.65 615.94 367.43
  C 611.58 364.39 607.06 361.83 603.07 359.13
  C 590.67 350.76 576.60 341.34 560.87 330.87
  C 554.04 326.32 548.62 322.60 544.60 319.69
  C 543.33 318.76 542.27 317.81 541.44 316.82
  C 541.20 316.53 541.01 316.22 540.86 315.89
  C 538.21 309.96 541.28 307.26 546.69 304.40
  C 557.72 298.57 564.92 294.88 568.29 293.33
  C 573.22 291.07 581.12 294.50 585.55 296.02
  C 632.82 312.23 658.39 320.97 662.27 322.22
  C 672.75 325.59 678.32 327.48 678.97 327.89
  C 679.30 328.09 679.71 328.11 680.04 327.92
  C 683.88 325.85 687.33 323.92 690.39 322.15
  C 705.48 313.40 728.84 299.75 760.45 281.20
  C 768.77 276.32 778.38 272.93 787.90 272.25
  C 796.59 271.62 808.70 274.08 815.35 280.15
  C 817.82 282.40 819.04 287.29 818.60 290.92
  C 816.90 305.02 805.94 317.95 794.80 326.09
  C 789.03 330.30 782.77 334.45 776.04 338.53
  C 757.25 349.92 738.18 361.52 718.82 373.31
  C 717.18 374.31 716.12 375.48 715.64 376.83
  C 714.74 379.37 713.98 381.71 713.35 383.84
  C 704.48 413.99 695.25 446.18 685.66 480.40
  C 685.03 482.65 683.77 484.38 681.86 485.61
  C 674.29 490.48 667.91 494.60 662.72 497.95
  C 658.29 500.81 651.96 500.04 650.17 494.28
  C 649.83 493.17 649.58 490.86 649.42 487.34
  C 648.73 471.93 647.73 456.13 646.44 439.92
  C 646.02 434.64 646.20 430.70 645.64 426.66
  C 644.93 421.55 645.14 417.05 644.91 411.93
  C 644.88 411.29 644.22 410.87 643.63 411.13
  C 642.62 411.56 641.62 412.05 640.61 412.60
  C 621.78 422.95 598.68 434.87 571.33 448.34
  C 565.84 451.05 561.02 453.13 556.87 454.58
  C 554.52 455.40 552.05 455.96 549.47 456.27
  C 545.08 456.80 540.37 457.19 536.87 459.37
  C 525.28 466.57 510.01 475.79 491.05 487.03
  C 474.38 496.91 453.80 507.92 429.31 520.06
  C 426.87 521.27 420.37 524.10 409.81 528.56
  C 392.06 536.05 374.66 541.40 357.63 544.59
  C 333.31 549.14 309.89 548.55 287.28 539.68
  C 278.86 536.38 270.88 531.37 263.34 524.66
  C 263.00 524.36 262.49 524.01 261.81 523.61
  C 261.64 523.51 261.44 523.69 261.53 523.87
  Z
  M 601.79 234.68
  C 601.79 229.01 597.19 224.41 591.52 224.41
  C 585.85 224.41 581.25 229.01 581.25 234.68
  C 581.25 240.35 585.85 244.95 591.52 244.95
  C 597.19 244.95 601.79 240.35 601.79 234.68
  Z"
/>
<path fill="#21a0bb" d="
  M 477.79 269.56
  C 474.77 274.85 470.96 280.70 466.35 287.11
  C 456.17 301.29 448.35 311.78 442.88 318.57
  C 439.25 323.10 434.62 324.21 429.00 321.91
  C 427.60 321.34 425.71 319.61 423.34 316.70
  C 410.33 300.80 399.24 285.72 390.06 271.47
  C 387.33 267.23 384.87 261.98 382.67 255.73
  C 376.62 238.56 379.49 219.22 390.81 205.14
  C 395.94 198.77 402.31 193.64 409.93 189.73
  C 423.90 182.57 442.02 181.71 456.37 188.62
  C 469.78 195.08 478.91 205.12 483.74 218.74
  C 484.98 222.22 485.66 226.17 486.41 230.60
  C 486.76 232.63 486.92 234.25 486.91 235.44
  C 486.75 247.83 483.71 259.21 477.79 269.56
  Z
  M 457.3394 238.2014
  C 457.25 225.07 446.36 214.51 433.0241 214.6006
  C 419.69 214.69 408.95 225.41 409.0406 238.5386
  C 409.13 251.67 420.02 262.23 433.3559 262.1394
  C 446.69 262.05 457.43 251.33 457.3394 238.2014
  Z"
/>
<path fill="#21a0bb" d="
  M 317.93 428.76
  C 330.35 414.76 349.29 408.33 367.72 411.11
  C 378.13 412.68 390.97 418.08 387.90 431.19
  C 386.59 436.83 380.66 440.32 374.99 439.43
  C 373.72 439.22 371.91 438.49 369.58 437.24
  C 367.03 435.87 364.17 435.10 361.01 434.94
  C 348.66 434.32 337.72 439.81 331.77 450.50
  C 329.69 454.24 328.45 457.74 328.04 461.01
  C 327.24 467.48 327.30 472.79 328.21 476.94
  C 329.14 481.17 328.69 484.65 326.86 487.37
  C 323.86 491.83 319.02 493.97 313.76 492.73
  C 307.39 491.22 304.54 485.90 303.54 479.76
  C 300.35 460.16 305.15 443.16 317.93 428.76
  Z"
/>
<circle fill="#21a0bb" cx="409.26" cy="725.42" r="15.74"/>
<path fill="#21a0bb" d="
  M 671.04 806.15
  C 671.06 806.04 670.97 805.94 670.86 805.94
  L 633.23 805.94
  C 632.89 805.94 632.61 805.66 632.61 805.32
  L 632.61 782.84
  C 632.61 782.30 633.05 781.86 633.59 781.86
  L 698.24 781.86
  C 698.69 781.86 699.07 782.20 699.12 782.64
  C 701.13 799.12 698.42 817.34 689.95 831.44
  C 680.58 847.04 666.42 856.68 647.48 860.36
  C 638.03 862.19 628.57 862.34 619.12 860.81
  C 598.83 857.52 583.23 847.40 572.31 830.45
  C 567.06 822.29 563.05 810.22 562.10 799.59
  C 561.02 787.47 561.72 776.58 564.20 766.93
  C 570.61 741.96 586.36 725.40 611.43 717.24
  C 615.96 715.77 622.23 714.77 630.25 714.24
  C 647.82 713.08 666.03 718.01 679.35 729.40
  C 689.09 737.73 695.28 748.59 697.93 761.96
  C 698.04 762.55 697.59 763.10 696.99 763.10
  L 666.99 763.10
  C 666.65 763.10 666.35 762.86 666.27 762.53
  C 662.44 746.52 646.33 739.14 630.97 739.54
  C 612.94 740.01 600.60 749.60 594.31 766.24
  C 593.31 768.90 592.63 771.18 592.27 773.09
  C 588.64 792.60 592.15 814.31 607.17 827.52
  C 611.46 831.29 617.02 833.98 623.84 835.58
  C 635.13 838.22 648.58 836.07 657.92 829.30
  C 665.29 823.97 669.67 816.25 671.04 806.15
  Z"
/>
<path fill="#21a0bb" d="
  M 240.53 742.80
  L 199.41 742.80
  C 199.10 742.80 198.85 742.55 198.85 742.24
  L 198.85 716.67
  C 198.85 716.36 199.10 716.11 199.41 716.11
  L 309.77 716.11
  C 310.08 716.11 310.33 716.36 310.33 716.67
  L 310.33 742.24
  C 310.33 742.55 310.08 742.80 309.77 742.80
  L 269.87 742.80
  C 269.56 742.80 269.31 743.05 269.31 743.36
  L 269.31 858.45
  C 269.31 858.76 269.06 859.01 268.75 859.01
  L 241.65 859.01
  C 241.34 859.01 241.09 858.76 241.09 858.45
  L 241.09 743.36
  C 241.09 743.05 240.84 742.80 240.53 742.80
  Z"
/>
<path fill="#21a0bb" d="
  M 317.57 752.95
  L 342.89 752.95
  C 343.19 752.95 343.44 753.20 343.44 753.50
  L 343.44 767.75
  C 343.44 768.25 344.09 768.44 344.36 768.02
  C 352.58 754.89 364.46 749.22 380.00 751.01
  C 380.78 751.10 381.37 751.76 381.37 752.55
  L 381.37 776.62
  C 381.37 776.94 381.11 777.19 380.79 777.17
  C 372.04 776.69 363.33 776.34 355.58 780.50
  C 348.81 784.13 344.67 791.37 343.90 798.72
  C 343.71 800.62 343.58 802.96 343.51 805.75
  C 343.44 809.17 343.40 826.65 343.40 858.20
  C 343.40 858.64 343.05 858.99 342.61 858.99
  L 317.18 858.99
  C 316.94 858.99 316.75 858.80 316.75 858.57
  L 316.75 753.77
  C 316.75 753.32 317.12 752.95 317.57 752.95
  Z"
/>
<path fill="#21a0bb" d="
  M 469.23 848.84
  C 468.97 848.63 468.59 848.81 468.59 849.14
  L 468.59 897.07
  C 468.59 897.55 468.20 897.94 467.72 897.94
  L 442.49 897.94
  C 442.32 897.94 442.19 897.81 442.19 897.64
  L 442.19 753.73
  C 442.19 753.30 442.53 752.96 442.95 752.96
  L 467.82 752.96
  C 468.11 752.96 468.35 753.20 468.35 753.50
  L 468.35 764.88
  C 468.35 765.31 468.90 765.48 469.15 765.13
  C 477.51 753.40 492.99 749.18 507.01 751.10
  C 524.68 753.51 537.23 762.77 544.67 778.87
  C 546.64 783.12 548.05 788.08 548.92 793.75
  C 550.70 805.35 549.66 816.87 545.80 828.31
  C 542.47 838.20 536.31 847.14 527.65 853.20
  C 517.70 860.17 506.24 862.76 493.27 860.95
  C 486.39 860.00 480.39 857.58 475.28 853.69
  C 474.30 852.94 472.28 851.33 469.23 848.84
  Z
  M 468.44 805.58
  C 468.14 821.95 476.47 837.98 494.73 838.32
  C 513.00 838.65 521.90 822.94 522.20 806.56
  C 522.50 790.19 514.18 774.16 495.91 773.83
  C 477.65 773.49 468.74 789.20 468.44 805.58
  Z"
/>
<path fill="#21a0bb" d="
  M 820.38 811.79
  C 819.33 819.78 817.96 826.73 814.47 833.44
  C 804.10 853.38 785.10 862.89 762.85 861.85
  C 743.60 860.94 728.13 851.62 719.00 834.20
  C 713.91 824.49 711.60 812.23 713.08 800.99
  C 714.14 792.99 715.51 786.04 718.99 779.33
  C 729.37 759.40 748.37 749.89 770.62 750.93
  C 789.87 751.84 805.34 761.16 814.46 778.57
  C 819.56 788.29 821.87 800.55 820.38 811.79
  Z
  M 793.34 806.04
  C 793.17 789.78 784.45 774.11 766.32 774.30
  C 748.19 774.48 739.79 790.33 739.96 806.59
  C 740.13 822.85 748.85 838.52 766.98 838.33
  C 785.12 838.14 793.51 822.30 793.34 806.04
  Z"
/>
<rect fill="#21a0bb" x="395.77" y="752.97" width="26.48" height="106.04" rx="0.60"/>
</svg>
